<svg xmlns="http://www.w3.org/2000/svg" width="32" height="32" viewBox="0 0 32 32">
  <defs><linearGradient id="g" x1="0" y1="0" x2="1" y2="1">
    <stop offset="0" stop-color="#002869"/><stop offset="1" stop-color="#003A8C"/>
  </linearGradient></defs>
  <rect width="32" height="32" rx="7.04" fill="url(#g)"/>
  <g transform="translate(3.84 3.84) scale(0.76)"><defs><clipPath id="pc"><path d="M16 1.4C9 1.4 3.3 7.1 3.3 14.1c0 9 12.7 16.5 12.7 16.5s12.7-7.5 12.7-16.5C28.7 7.1 23 1.4 16 1.4z"/></clipPath></defs>
    <path d="M16 1.4C9 1.4 3.3 7.1 3.3 14.1c0 9 12.7 16.5 12.7 16.5s12.7-7.5 12.7-16.5C28.7 7.1 23 1.4 16 1.4z" fill="#fff"/>
    <g clip-path="url(#pc)">
      <path d="M1 21.6c5-2.7 9.6-2.7 15 0s10 2.7 15 0V32H1z" fill="#EA142B"/>
      <path d="M1.5 24.6c5-2.4 9.6-2.4 15 0s10 2.4 15 0" stroke="#002869" stroke-width="1" fill="none"/>
    </g>
    <path d="M16 6.6l3.64 6.3h-7.28zM16 15.6l-3.64-6.3h7.28z" fill="#002869"/></g>
</svg>